<?xml version="1.0" encoding="UTF-8"?>
<svg xmlns="http://www.w3.org/2000/svg" xmlns:xlink="http://www.w3.org/1999/xlink" width="512pt" height="512pt" viewBox="0 0 512 512" version="1.1">
<defs>
<linearGradient id="linear0" gradientUnits="userSpaceOnUse" x1="86" y1="34.0345" x2="86" y2="140.88412" gradientTransform="matrix(2.976744,0,0,2.976744,0,0)">
<stop offset="0" style="stop-color:rgb(10.196078%,42.745098%,100%);stop-opacity:1;"/>
<stop offset="1" style="stop-color:rgb(78.431373%,13.333333%,100%);stop-opacity:1;"/>
</linearGradient>
<linearGradient id="linear1" gradientUnits="userSpaceOnUse" x1="86.03494" y1="45.23063" x2="86.03494" y2="127.72613" gradientTransform="matrix(2.976744,0,0,2.976744,0,0)">
<stop offset="0" style="stop-color:rgb(54.117647%,70.588235%,100%);stop-opacity:1;"/>
<stop offset="1" style="stop-color:rgb(89.411765%,57.254902%,100%);stop-opacity:1;"/>
</linearGradient>
</defs>
<g id="surface5540747">
<path style=" stroke:none;fill-rule:nonzero;fill:url(#linear0);" d="M 199.855469 408 C 189.671875 408 179.480469 404.199219 171.664062 396.566406 L 55.105469 282.910156 C 50.519531 278.449219 48 272.488281 48 266.144531 C 48 259.800781 50.519531 253.839844 55.113281 249.367188 L 77.671875 227.367188 C 87 218.273438 102.175781 218.273438 111.496094 227.375 L 193.566406 307.398438 C 196.726562 310.480469 202.03125 310.441406 205.136719 307.304688 L 399.863281 111.097656 C 409.039062 101.847656 424.214844 101.609375 433.6875 110.550781 L 456.625 132.191406 C 461.28125 136.59375 463.902344 142.511719 464.007812 148.855469 C 464.113281 155.199219 461.679688 161.191406 457.175781 165.726562 L 228.519531 396.113281 C 220.671875 404.03125 210.265625 408 199.855469 408 Z M 94.574219 236.511719 C 92.496094 236.511719 90.414062 237.289062 88.839844 238.832031 L 66.28125 260.832031 C 64.808594 262.265625 64 264.144531 64 266.144531 C 64 268.144531 64.816406 270.023438 66.28125 271.457031 L 182.832031 385.121094 C 192.351562 394.425781 207.761719 394.304688 217.160156 384.847656 L 445.808594 154.464844 C 447.257812 153.007812 448.023438 151.121094 447.992188 149.121094 C 447.960938 147.121094 447.121094 145.238281 445.625 143.832031 L 422.6875 122.191406 C 419.480469 119.144531 414.3125 119.238281 411.207031 122.367188 L 216.488281 318.585938 C 207.160156 327.96875 191.855469 328.097656 182.382812 318.855469 L 100.320312 238.824219 C 98.742188 237.28125 96.664062 236.511719 94.574219 236.511719 Z M 94.574219 236.511719 "/>
<path style=" stroke:none;fill-rule:nonzero;fill:url(#linear1);" d="M 199.816406 372.871094 C 195.902344 372.871094 191.976562 371.425781 188.871094 368.519531 L 82.542969 268.824219 L 93.480469 257.152344 L 199.816406 356.839844 L 418.34375 138.320312 L 429.65625 149.632812 L 211.128906 368.152344 C 208 371.289062 203.910156 372.871094 199.816406 372.871094 Z M 199.816406 372.871094 "/>
</g>
</svg>
